<?xml version="1.0" standalone="no"?><!DOCTYPE svg PUBLIC "-//W3C//DTD SVG 1.1//EN" "http://www.w3.org/Graphics/SVG/1.1/DTD/svg11.dtd"><svg t="1760345554526" class="icon" viewBox="0 0 1024 1024" version="1.1" xmlns="http://www.w3.org/2000/svg" p-id="8597" xmlns:xlink="http://www.w3.org/1999/xlink" width="200" height="200"><path d="M95.232 75.264C233.472 14.848 395.776 2.56 512 2.56s278.016 12.288 416.256 72.704c19.968 8.704 32.256 24.576 32.256 53.76 0 429.056-164.864 694.784-425.472 881.152-12.288 8.704-19.456 11.264-23.04 11.264-3.072 0-10.752-2.56-23.04-11.264C228.352 823.808 63.488 558.08 63.488 129.024c0-28.672 12.288-45.056 31.744-53.76" fill="#20201A" p-id="8598"></path><path d="M130.048 104.96c127.488-55.808 276.992-67.072 384-67.072s256.512 11.264 384 67.072c18.432 8.192 29.696 23.04 29.696 49.152 0 395.776-152.064 641.024-392.704 812.544-11.264 8.192-17.92 10.24-20.992 10.24-3.072 0-10.24-2.56-20.992-10.24-240.128-171.52-392.704-416.768-392.704-812.544 0.512-26.112 11.776-40.96 29.696-49.152" fill="#FFFFFF" p-id="8599"></path><path d="M465.408 226.304c0-13.824 22.016-38.912 56.32-38.912 51.2-0.512 52.736 10.24 65.024 7.68 12.288-2.56 12.288 6.144 19.456 7.68 7.168 1.536 0.512 2.56 7.168 1.536 6.656-1.024 17.92 4.608 11.776 4.608s-9.216 2.56-18.432 0c-8.704-2.56-17.92-2.56-17.92 0.512s14.848 4.608 19.456 4.608-8.704 6.656-12.8 6.656-15.36 8.704-20.48 9.216c-5.12 0.512-11.264 0.512-16.384-0.512s-20.992-8.192-24.064-7.168c-3.072 1.024-10.752-3.072-13.312-6.144-11.776-13.824-41.984-1.024-41.984 8.192s59.904 15.36 69.632 15.872c9.216 0.512 66.048-1.024 82.944-1.024 37.376-0.512 56.32 34.304 56.32 50.688 0 16.896-4.608 5.632-4.608 28.16 0 22.016 18.944 40.96 23.552 46.08 4.608 5.12 11.264 16.896 11.776 22.016 0.512 5.12 4.608 23.552 5.12 28.16 0.512 5.12 0 29.184-5.12 33.792-5.12 4.608-2.56 27.648-1.536 32.768 1.024 5.632 14.336 32.256 10.24 35.84-4.096 3.584 4.096 5.632 6.144 7.168 1.536 2.048 8.192 16.896 19.968 17.408 12.288 0.512 24.576 0 29.184 1.024 4.608 1.024 1.536 10.24-2.048 14.336-3.584 4.096-22.528 23.552-52.736 9.728-1.024 5.12-10.24 10.752-9.216 14.336 1.024 3.072 7.68 23.04 3.072 26.112-4.096 3.584-8.192 18.432-8.192 23.04 0 4.608 0 15.872 3.584 19.968 3.072 4.096 4.608 11.776 4.096 14.336-0.512 2.56-3.584 12.8-2.56 14.848 1.536 2.048 4.608 12.8 4.608 16.896 0 4.096-3.584 11.264-6.144 11.776-2.56 0.512-23.552-0.512-29.184-5.12-5.12-4.608-6.144-13.824-1.536-18.944 4.608-5.12 5.12-10.24 3.072-12.8-1.536-2.56-6.656-14.848-3.584-18.944 3.072-3.584 7.168-11.776 7.168-16.896s0.512-14.848-1.024-17.92c-1.536-3.072-5.12-11.776-5.632-15.36-0.512-3.584-10.752-6.144-14.848-3.072-4.096 3.584 5.12-0.512 3.584 1.024-1.536 1.536-9.728 5.12-13.312 3.072-1.024 4.096-8.192 4.096-9.728 6.144s-17.408 16.896-17.408 22.528c0 5.632-4.096 15.872-7.168 16.896 0 2.56 4.096 3.072 4.608 5.632 0.512 2.56 0 9.216-0.512 11.264-0.512 2.048-4.608 4.608-8.192 7.168-3.584 2.56-6.144 9.216-7.68 10.752-1.536 1.536-5.12 4.608-11.264 5.12-6.144 0.512-17.408 4.096-20.48 3.584s-6.144-3.072-7.168-5.632c-1.536 3.072-16.384 7.168-17.92 4.096-1.536-3.072-8.704-11.264-7.68-15.872 0-0.512-6.144-17.408-4.096-16.384-4.096-2.56-4.608-5.12-5.12-8.704-0.512-3.584-13.824-3.072-15.36-0.512-1.536 2.56-4.096 5.632-2.048 9.728 2.048 4.096-1.024 13.312-4.608 15.36-3.584 2.048-6.656 7.68-7.168 10.752-0.512 3.072-1.024 10.24-1.024 12.288 0 2.048-5.632 12.8-8.192 12.288-2.56-0.512-3.584-1.536-6.656-2.048-3.072-0.512-7.168 0-11.264-1.024-3.584-1.024-10.752-7.68-10.752-10.752 0-3.072 3.072-10.24 5.632-12.288 2.56-2.048 8.704-7.168 11.264-10.24 2.048-3.072 9.728-16.384 11.776-17.408s3.584-5.632 5.12-7.68-1.024-6.656-5.12-4.096-13.312-11.776-16.896-6.656c-3.584 5.12-15.36 19.968-18.944 22.016-4.096 2.048-9.216 10.24-9.728 15.872-0.512 5.632-6.656 15.872-9.216 18.944-2.56 2.56-7.68 12.288-7.168 14.848 0.512 2.56-2.048 3.584-2.56 3.584 0.512 6.656 2.048 11.776 1.024 14.848-1.024 3.072-15.36 12.288-27.136 10.24-11.776-2.048-16.896-9.216-19.456-11.776-2.56-2.56 1.024-15.36 6.144-17.92 5.12-2.048 2.048-3.584 4.096-6.144 2.56-2.56 17.92-16.384 20.992-17.92 3.072-1.024 9.216-12.8 12.288-15.872 3.072-3.072 3.072-16.896 5.12-20.992 2.048-4.096 2.048-12.288 5.632-17.408-3.584-1.024-1.024-5.632-5.12-7.168-4.096-1.536-5.12-14.336-4.608-18.432 0.512-4.096 3.584-8.192 1.024-11.776-2.56-3.584-0.512-18.944-6.656-10.752-5.632 8.192-19.968 39.424-22.528 41.984-2.56 2.56-4.608 14.848-4.096 18.432 0.512 4.096-0.512 11.776-2.56 14.336s-5.12 8.704-6.144 11.776c-1.024 3.072-8.704 7.68-13.824 10.752-33.28 19.456-25.088 53.248-25.088 61.44 0 8.192 0 14.848-1.024 16.896-1.024 2.048-3.072 2.56-6.144 2.56s-1.536 6.656-1.536 10.24-21.504 7.168-28.672 4.608c-7.168-2.56-26.112-11.776-11.776-26.624 14.848-15.36 14.848-13.312 18.432-13.824 0.512-3.584-2.048-17.92 0.512-20.48 8.704-8.704 13.312-19.456 18.432-26.624 3.584-5.12 6.144-16.384 9.728-18.432s2.048-12.8 5.632-18.944c3.584-6.656 13.312-23.04 12.8-28.672-0.512-5.632-5.632-32.768-2.56-41.472 3.072-8.704 14.336-36.864 14.848-43.52 0.512-6.656 5.12-43.52 9.728-54.272 4.096-10.752 27.136-38.4 29.184-46.08 2.048-7.68 9.728-48.128 11.264-53.248 1.536-5.632 9.728-28.16 19.456-32.256 9.216-4.096 12.288-12.288 24.576-17.92s27.136-16.384 29.696-19.968c2.56-3.584 15.872-10.24 20.992-10.24 5.12 0 2.048-5.632 6.144-9.216 4.096-3.584 4.608-7.168 8.704-8.192-6.144 1.536 15.872-12.8 35.84-2.56 13.824 7.168 28.16 17.408 34.304 17.408 6.144 0 41.472 6.656 45.568 9.216 3.584 3.072 4.096-16.384 6.144-20.48 4.608-8.192-0.512-12.8-11.776-23.552-11.264-10.752-29.184-12.288-49.664-11.264-20.48 1.024-61.952-2.56-80.384-2.56s-61.44-9.216-61.44-24.064z m-119.808 505.344c-3.584-0.512-13.312-3.584-14.848-6.656 0 3.072-1.536 6.656-4.608 8.192-4.096-1.024-17.408 15.872-18.944 18.944-1.024 3.072 6.144 3.072 8.704-2.048s10.752-8.704 13.312-7.168c2.56 1.536 10.752 1.024 14.336 1.024 3.584 0 5.632-11.776 2.048-12.288z m27.136-90.624c-3.072-0.512-5.12 6.144-5.632 8.704-0.512 2.56-5.12 5.12-6.656 2.56-3.072 7.168-0.512 9.728-1.024 13.312 11.776 7.68 18.432-10.752 18.432-14.336s-2.048-9.728-5.12-10.24z m59.392 82.944c-4.096 1.536-23.04-1.024-27.136-3.072-4.608-2.56-13.312-0.512-5.12 6.144 11.776 9.728 29.696 3.584 32.256 2.048 2.56-1.536 3.584-7.168 0-5.12z m-6.656-37.376c-6.144 2.56-15.36 10.24-18.432 14.848-1.536 2.56-2.56 9.216 0.512 11.264 3.072 2.048 12.8 4.608 17.408 5.12 4.608 0.512 7.68-5.12 8.192-8.704 0.512-3.584 0.512-10.752 3.072-13.312 2.56-3.072-4.608-11.776-10.752-9.216z m26.624-52.224c-7.68 2.56-10.752 15.36-10.752 24.576-0.512 7.68 10.24 6.144 10.752 3.072 0.512-3.072 1.536-4.096 3.584-6.144 2.56-2.56 6.144-3.584 6.656-6.656 0.512-3.072-0.512-5.632 2.048-10.24 2.56-4.608-4.608-7.168-12.288-4.608z m40.448 50.688c1.536-2.56 2.56-7.68 5.12-9.728 2.56-2.048 1.536-6.656-1.536-4.608s-11.264 7.168-11.776 10.752c-0.512 3.584 6.656 6.144 8.192 3.584z m6.656 9.728c-3.072-0.512-12.288-4.096-14.336-6.144-4.096-1.536-6.144 6.144-1.536 9.216 4.608 3.072 13.312 3.072 16.896 1.536 3.584-1.536 2.048-4.096-1.024-4.608z m217.088-3.072c-3.072 1.024-14.336-1.536-19.456-4.096-6.656-2.048-2.048 12.288 5.632 14.336 7.68 2.048 12.8-2.048 15.36-5.12s1.536-6.144-1.536-5.12z m28.672-148.992c-18.944-9.728-27.648-29.184-46.08-39.936-11.264-6.656-20.48-13.824-31.744-20.992-2.56-1.536-2.56 7.68-6.656 7.68-33.28-0.512-27.648-8.704-37.888-9.728-8.192-0.512-17.92-9.728-15.872-17.92 6.144 6.656-26.112-3.584-20.992-8.192 6.656-6.656 0.512 3.072-2.56-5.632-1.024-3.072-7.68-8.704 3.072-11.264 9.728 0.512 18.432-8.704 26.112-9.728 21.504-3.584 6.144 19.456 20.48 32.256 0.512 0.512 6.144 2.048 6.656 1.024 3.072-16.896-4.096-4.096-6.656-19.968-3.584-20.48-14.336-38.912-17.92-59.392-3.072-18.432-7.168-34.304-24.576-44.544-5.632-3.584-5.12-12.288-9.728-16.896 7.168 2.048 26.624 6.144 27.648 6.656 18.944 10.24 14.848 35.84 29.184 50.688 3.584 4.096 12.288 9.216 16.384 3.072 7.168-10.24 0.512-33.28-11.264-50.688-4.608-7.168 15.872-5.12 11.776-7.168-14.848-7.168-26.624-10.752-43.52-12.8-6.144-1.024-15.872-8.704-22.528-8.704-6.656 0-17.92-15.36-24.064-14.336-21.504 2.56-13.824 15.872-32.256 24.576-14.336 6.656-18.432 13.312-32.256 19.968-12.8 6.144-28.672 20.992-42.496 27.136-4.096 2.048-10.752 12.288-12.288 15.36-9.728 21.504-10.24 41.984-14.848 68.096-28.16 29.184-35.328 50.176-33.28 83.456 0 2.56-14.336 46.08-12.8 62.976 0 2.048 3.072 3.072 4.608 4.096 8.192-24.064 10.752-59.392 27.648-79.36 8.192-9.728 1.536 7.68 14.848 10.752 7.168 2.048 13.312-3.584 13.824-11.264 0-6.656 3.584-12.8 8.704-16.384 3.072-2.048 5.12 4.608 6.656 6.656 10.24 12.288 23.552 15.36 38.4 13.312 8.192-1.024 15.36-8.192 17.92-17.92 2.048-9.728 16.896-8.704 22.528-7.168 13.312 3.072 11.264 35.328 9.728 48.128-1.536 12.288-14.848 16.896-21.504 28.16-4.608 7.168-6.656 15.872-4.096 24.064 2.048 7.68 7.68 13.824 10.24 21.504 4.608 14.336 11.776 26.624 15.36 41.984 1.024 4.096 4.608 6.144 6.144 9.216 5.12 11.776-3.072 18.944 11.264 24.576 2.56 1.024 5.12-2.048 3.584-4.608-3.072-6.144-4.608-12.288-5.12-19.456h3.072c-0.512 6.144 6.144 10.752 11.776 10.752 1.536 0 3.584-2.56 4.096-4.608 0.512-8.704-9.728 0.512-10.752-7.168-2.048-12.8-11.776-15.872-6.656-27.648 3.584-7.68 4.608-25.6 5.12-34.304-18.432-0.512-4.096 22.528-15.872 29.184-2.56 1.536-9.728-18.432-9.216-22.528 1.536-11.264 0.512-20.992 4.608-31.744 5.632-14.336 19.456-15.36 24.576-30.208 1.024-3.584 1.536-8.192-0.512-11.776-1.536-3.072-5.12-1.536-7.68-1.536-10.752-0.512-5.632-11.776-10.24-20.992-2.048-4.608-8.704-24.064-7.68-28.16 0.512-3.584 12.8 3.584 16.896 5.12 14.848 5.12 15.872-17.408 30.72-22.528 3.072-1.024 15.36 18.432 18.432 16.896 9.728-4.608 8.192 4.096 6.144 5.12-9.216 4.096-42.496-2.048-40.448 22.016 1.024 13.824 22.528 34.304 36.864 39.936 12.8 5.12 27.648 2.56 37.888-6.656-19.456-3.584-55.296-5.632-43.52-26.112 3.072-5.12 25.088-9.216 24.064-14.336 5.12 10.24 18.944-1.024 29.696 0.512 5.632 1.024 9.216 1.024 14.848 2.048 11.776 1.536 18.944 12.288 24.064 23.552 1.536 3.584 6.656 12.8 12.288 15.36 8.704 4.096 14.336 13.312 23.552 15.872 10.752 3.072 33.792 7.68 43.52-13.824-2.56-1.024-28.672 2.048-39.424-3.584z m-147.456 32.768c-8.192 2.048-0.512 18.944 4.608 22.528 2.048 2.048 6.144-0.512 3.584-4.096-2.56-3.584-4.096-10.752 2.56-12.288 7.168-1.024-2.048-8.192-10.752-6.144z m107.52-13.312c-3.584 11.776 14.336 14.848 18.432 5.12 1.024-2.56 0-5.12-1.024-7.168-1.024-2.048-8.192-7.68-11.264-7.68-3.072 0-5.12 0-7.168-1.536-2.048-1.536-11.264-1.024-11.776 2.56-1.024 2.048-1.536 5.12-1.024 8.192 0.512 3.072-2.048 11.776-4.096 15.36-2.048 3.584 11.776-4.608 11.776-7.168 0-2.56 1.024-8.192 2.56-9.728 1.536-1.536 5.12-3.072 3.584 2.048z m-235.52-122.368c1.536 8.704-8.192 18.432-11.776 20.992-3.072 2.56 1.536 5.12 0.512 9.728-1.024 4.608-0.512 8.192 4.608 12.288 5.12 4.096 9.216 4.096 13.824 0 4.096-4.096 7.168 1.536 13.312 2.56 5.632 1.024 4.608-6.144-3.072-9.728s-15.36-32.256-14.848-37.888c0.512-5.12-4.096-6.656-2.56 2.048z m98.816-56.32c-6.656-0.512-5.632 1.536-2.048 2.56 3.584 1.024 5.12 5.632-1.024 6.144-6.144 0.512-13.824-0.512-16.896 4.608-3.072 5.12-4.096 13.312 0.512 12.8 4.608-0.512 18.944 2.048 22.016 3.584s8.704 5.632 9.728 8.192c1.024 2.56 6.144 4.608 10.752 6.144 4.096 1.536 16.384 1.024 17.408-3.072 3.584-13.312-14.336-31.744-19.456-36.864-4.096-6.144-16.896-2.56-20.992-4.096z m12.8-67.072c4.608-18.944-5.12-19.968-8.704-18.432-3.584 1.536-3.584 10.752-1.024 13.824 2.56 2.56 11.264 7.68 9.728 4.608" fill="#20201A" p-id="8600"></path><path d="M143.36 168.96V115.2c-5.12 2.048-10.24 3.584-15.36 5.632v105.984c16.384-6.144 33.28-12.288 49.664-17.92V194.56c-11.776 3.584-23.04 7.68-34.816 11.776V168.96zM248.832 166.912c-2.048-8.704-4.608-17.408-6.656-26.112-4.608-16.896-8.704-33.792-13.312-50.176-5.12 1.024-10.752 2.56-15.872 4.096-4.608 18.944-8.704 37.888-13.312 56.832-1.024 5.12-2.56 10.752-3.584 15.872h-0.512c-3.072 13.312-6.144 26.624-9.216 39.424 5.632-1.536 10.752-3.072 16.384-4.608 1.024-5.12 2.048-9.728 3.072-15.36 1.024-5.12 2.048-9.728 3.584-15.36 3.072-1.024 6.656-1.536 9.728-2.56h8.704c1.536-0.512 3.584-1.024 5.12-1.024 0 0.512 0 1.024 0.512 1.024h0.512c1.024 3.584 1.536 6.656 2.56 10.24l3.072 13.824c5.632-1.536 10.752-2.56 16.896-3.584-2.048-7.168-4.096-14.848-6.144-22.016-1.024-0.512-1.536-0.512-1.536-0.512zM211.968 158.72c1.536-6.144 2.56-12.8 4.096-18.944 1.536-7.68 4.096-20.48 4.608-24.576 1.024 3.584 3.072 15.36 4.608 22.016 1.536 5.632 3.072 11.264 4.096 16.896-6.144 1.536-11.776 3.072-17.408 4.608zM895.488 120.832c-5.12-2.048-10.24-3.584-15.36-5.632v105.472l15.36 6.144V120.832zM843.264 126.464v43.008c0-0.512-0.512-1.536-1.024-2.56h-1.024c-2.048-4.608-4.608-11.776-5.632-15.36-4.096-9.216-7.68-19.456-11.776-28.672-4.096-9.728-7.68-18.944-11.776-28.672-5.12-1.536-10.24-2.56-15.36-3.584v104.448c5.12 1.536 9.728 2.56 14.848 4.096V147.456c0-5.12-0.512-17.408-0.512-20.992 1.536 3.584 5.632 14.336 7.68 19.456 3.072 7.68 6.144 15.36 9.216 23.552h1.024c1.024 2.048 2.048 4.608 2.56 6.656 4.608 10.752 8.704 21.504 13.312 32.768 4.096 1.536 8.192 2.56 12.288 4.096V107.52c-5.12-1.536-9.728-3.072-14.848-4.608v23.552zM320 94.72c-2.56 7.68-4.608 15.36-6.656 23.04-2.048 6.656-5.632 20.48-7.168 24.576-1.024-3.584-4.608-16.384-6.656-22.528-2.56-6.656-4.608-13.824-7.168-20.992-2.56-7.168-4.608-14.336-7.168-20.992-5.12 1.024-10.24 2.048-15.872 3.072v104.96c5.12-1.024 9.728-2.048 14.336-2.56v-40.96c0-6.656-0.512-22.016-0.512-26.624 1.024 4.096 5.632 18.944 8.192 26.112 2.56 6.656 4.608 13.824 6.656 20.992 0.512 2.048 1.024 3.584 2.048 5.632h0.512c1.536 4.608 3.072 8.704 4.608 13.312 1.536-4.608 2.56-8.704 4.096-13.312h0.512l2.56-8.192c2.048-7.68 4.608-15.36 7.168-23.04 2.56-8.192 7.168-24.576 8.192-29.184-0.512 4.096-0.512 19.968-0.512 26.624v40.96c4.608-0.512 9.728-1.536 14.848-2.048V69.632c-5.632 1.024-10.752 1.536-15.872 2.048-1.536 7.68-3.584 15.36-6.144 23.04zM629.248 131.072c4.096 0.512 8.192 0.512 11.776 1.024v7.68c0 13.312-3.584 18.944-13.824 17.92-7.168-0.512-11.776-6.144-14.848-14.336-2.56-7.68-3.584-17.92-3.584-27.136 0-11.264 1.536-21.504 4.096-28.672 2.56-7.168 7.168-10.752 12.8-10.752 7.68 1.024 11.776 5.12 14.336 16.384 5.12-1.024 10.24-2.048 15.36-2.56-3.072-16.384-11.264-27.648-29.184-29.184-11.264-1.024-19.456 4.608-25.088 13.824-5.632 9.728-8.192 23.552-8.192 39.936 0 15.36 2.56 29.184 7.68 39.424 3.072 5.632 7.168 10.752 12.288 13.824h4.608c2.56 1.024 5.632 1.536 8.704 2.048 5.632 0.512 10.752-0.512 14.848-2.048h4.096c1.536-1.024 3.072-2.56 4.608-3.584 5.12-5.632 7.168-13.824 7.168-22.528v-23.552c-9.216-1.024-18.432-1.536-27.648-2.56v14.848zM563.712 118.784c5.12-2.048 9.216-5.12 12.288-9.216s4.608-10.24 4.608-18.432c0-10.752-3.584-18.432-9.216-23.552-5.632-5.12-12.8-7.168-20.992-7.68-10.24-0.512-20.48-0.512-30.72-0.512v108.032h15.36v-46.592c4.096 0.512 8.192 0.512 12.8 0.512 2.56 8.192 5.632 15.872 8.192 23.552 2.56 7.68 5.632 15.872 8.192 23.552 5.632 0 11.264 0.512 16.896 0.512-3.072-8.192-5.632-16.896-8.704-24.576-3.072-9.216-5.632-17.408-8.704-25.6z m-14.848-12.288c-4.608 0-9.216 0-14.336-0.512V73.728c4.608 0.512 9.216 0.512 14.336 0.512 9.216 0.512 15.872 5.12 15.872 16.384 0.512 11.264-5.632 15.872-15.872 15.872zM409.088 113.664c8.704-4.608 12.8-14.336 12.8-23.04 0-9.728-3.072-16.896-8.704-20.992-5.12-4.096-12.8-5.632-21.504-5.12-9.216 1.024-17.92 2.048-27.136 2.56v104.96c9.728-1.024 18.944-2.048 28.672-2.56 1.536 0 3.072-0.512 4.096-0.512h7.68c4.096-1.536 7.168-4.096 9.728-7.168 5.12-5.632 8.192-13.824 8.192-24.576 0.512-11.776-4.608-20.48-13.824-23.552z m-29.696-18.944v-14.848c4.096-0.512 8.192-1.024 12.288-1.024 8.192-1.024 14.336 2.56 14.336 13.312 0 10.24-6.144 15.36-14.336 15.872l-12.288 1.536v-14.848z m13.824 62.464c-4.608 0.512-9.216 1.024-13.824 1.024V123.904c4.096-0.512 7.68-1.024 11.776-1.536 9.216-0.512 16.384 4.096 16.384 15.872 0.512 12.8-5.12 18.432-14.336 18.944zM721.92 96.768v21.504l-30.72-4.608v-43.008c-5.12-1.024-10.24-1.536-15.36-2.048V174.08c5.12 0.512 10.24 1.024 15.36 2.048v-47.616l30.72 4.608v47.104c5.12 1.024 9.728 1.536 15.36 2.56V77.824c-5.12-1.024-10.24-2.048-15.36-2.56v21.504zM469.504 58.368c-11.264 0.512-19.968 6.656-25.088 17.408-5.12 10.24-7.68 24.064-7.68 39.936 0 15.872 2.56 29.696 7.68 38.912 4.096 7.68 10.24 12.8 17.92 14.336h12.288c8.704-2.048 14.848-7.68 19.456-15.872 5.12-9.728 7.68-24.064 7.68-39.936 0-15.872-2.56-29.696-7.68-39.424-4.608-9.728-13.312-15.872-24.576-15.36z m13.824 83.456c-2.56 7.168-6.656 12.288-13.312 12.8-6.656 0-10.752-5.12-13.824-12.288-2.56-7.68-3.584-17.92-3.584-28.16 0-9.728 1.024-19.968 3.584-28.16 2.56-7.68 6.656-13.312 13.824-13.312 6.144-0.512 10.752 5.12 13.824 12.8 3.072 7.68 4.096 17.92 4.096 28.16-1.024 10.24-2.048 20.48-4.608 28.16zM759.296 135.68v50.688l15.36 3.072V84.992l-15.36-3.072v53.76z" p-id="8601"></path></svg>