<?xml version="1.0" standalone="no"?><!DOCTYPE svg PUBLIC "-//W3C//DTD SVG 1.1//EN" "http://www.w3.org/Graphics/SVG/1.1/DTD/svg11.dtd"><svg t="1760345463189" class="icon" viewBox="0 0 1024 1024" version="1.1" xmlns="http://www.w3.org/2000/svg" p-id="6303" xmlns:xlink="http://www.w3.org/1999/xlink" width="200" height="200"><path d="M156.7 521.4c0 127.4 67.3 238.8 168 301.5L159.1 481c-1.5 13.3-2.4 26.7-2.4 40.4zM397 857.3c36.1 12.4 74.7 19.4 115 19.4 31.1 0 61-4.4 89.7-11.9L497.5 650.7 397 857.3z m239.2-668.5C597.5 174.3 555.8 166 512 166c-52.4 0-102 11.6-146.8 32l133.2 273.8 137.8-283z m66.9 33.3l-151.8 312H445.6l-145-297.9c-47.5 35.3-85.8 82-110.9 136.2l179.4 371.2 78.4-161.1h100.1L626 743.7l193.3-400.2c-28.5-49.1-68.4-90.8-116.2-121.4zM857 437.5L660.2 844c122.2-56.2 207.2-179.4 207.2-322.7-0.1-28.9-3.9-56.8-10.4-83.8zM512 64C265 64 64 265 64 512s201 448 448 448 448-201 448-448S759 64 512 64z m0 851.8c-222.7 0-403.8-181.2-403.8-403.8 0-222.6 181.2-403.8 403.8-403.8 222.6 0 403.8 181.2 403.8 403.8 0 222.7-181.1 403.8-403.8 403.8z" fill="#333333" p-id="6304"></path></svg>