<?xml version="1.0" standalone="no"?><!DOCTYPE svg PUBLIC "-//W3C//DTD SVG 1.1//EN" "http://www.w3.org/Graphics/SVG/1.1/DTD/svg11.dtd"><svg t="1760345734907" class="icon" viewBox="0 0 1024 1024" version="1.1" xmlns="http://www.w3.org/2000/svg" p-id="11499" xmlns:xlink="http://www.w3.org/1999/xlink" width="200" height="200"><path d="M221.3 360c-85.4 0-154.6 69.2-154.6 154.6s69.2 154.6 154.6 154.6S375.9 600 375.9 514.6 306.7 360 221.3 360z m0 292c-75.9 0-137.4-61.5-137.4-137.4s61.5-137.4 137.4-137.4 137.4 61.5 137.4 137.4S297.2 652 221.3 652z" fill="#8098FF" p-id="11500"></path><path d="M221.3 670.6c-86 0-156-70-156-156s70-156 156-156 156 70 156 156-69.9 156-156 156z m0-309.2c-84.5 0-153.2 68.7-153.2 153.2s68.7 153.2 153.2 153.2S374.5 599 374.5 514.6s-68.7-153.2-153.2-153.2z m0 292c-76.6 0-138.9-62.3-138.9-138.9s62.3-138.9 138.9-138.9 138.9 62.4 138.9 139-62.3 138.8-138.9 138.8z m0-274.8c-75 0-136 61-136 136s61 136 136 136 136-61 136-136-61-136-136-136z" fill="" p-id="11501"></path><path d="M221.3 639.1c-68.7 0-124.5-55.9-124.5-124.5S152.6 390 221.3 390s124.5 55.9 124.5 124.5S290 639.1 221.3 639.1z m0-246.2c-67.1 0-121.7 54.6-121.7 121.7s54.6 121.7 121.7 121.7S343 581.7 343 514.6s-54.6-121.7-121.7-121.7z" fill="" p-id="11502"></path><path d="M416 360c-85.4 0-154.6 69.2-154.6 154.6S330.6 669.2 416 669.2 570.6 600 570.6 514.6 501.4 360 416 360z m0 292c-75.9 0-137.4-61.5-137.4-137.4S340.1 377.2 416 377.2s137.4 61.5 137.4 137.4S491.9 652 416 652z" fill="#8098FF" p-id="11503"></path><path d="M416 670.6c-86 0-156-70-156-156s70-156 156-156 156 70 156 156-69.9 156-156 156z m0-309.2c-84.5 0-153.2 68.7-153.2 153.2S331.5 667.7 416 667.7 569.2 599 569.2 514.6 500.5 361.4 416 361.4z m0 292c-76.6 0-138.9-62.3-138.9-138.9S339.4 375.7 416 375.7 554.9 438 554.9 514.6 492.6 653.4 416 653.4z m0-274.8c-75 0-136 61-136 136s61 136 136 136 136-61 136-136-61-136-136-136z" fill="" p-id="11504"></path><path d="M416 639.1c-68.7 0-124.5-55.9-124.5-124.5S347.3 390 416 390s124.5 55.9 124.5 124.5S484.7 639.1 416 639.1z m0-246.2c-67.1 0-121.7 54.6-121.7 121.7S348.9 636.3 416 636.3s121.7-54.6 121.7-121.7S483.1 392.9 416 392.9z" fill="" p-id="11505"></path><path d="M605 360c-85.4 0-154.6 69.2-154.6 154.6S519.6 669.2 605 669.2 759.6 600 759.6 514.6 690.4 360 605 360z m0 292c-75.9 0-137.4-61.5-137.4-137.4S529.1 377.2 605 377.2s137.4 61.5 137.4 137.4S680.9 652 605 652z" fill="#8098FF" p-id="11506"></path><path d="M605 670.6c-86 0-156-70-156-156s70-156 156-156 156 70 156 156-70 156-156 156z m0-309.2c-84.5 0-153.2 68.7-153.2 153.2S520.5 667.7 605 667.7 758.2 599 758.2 514.6 689.4 361.4 605 361.4z m0 292c-76.6 0-138.9-62.3-138.9-138.9S528.4 375.7 605 375.7 743.8 438 743.8 514.6 681.6 653.4 605 653.4z m0-274.8c-75 0-136 61-136 136s61 136 136 136 136-61 136-136-61-136-136-136z" fill="" p-id="11507"></path><path d="M605 639.1c-68.7 0-124.5-55.9-124.5-124.5S536.3 390 605 390s124.5 55.9 124.5 124.5S673.7 639.1 605 639.1z m0-246.2c-67.1 0-121.7 54.6-121.7 121.7S537.9 636.3 605 636.3s121.7-54.6 121.7-121.7S672.1 392.9 605 392.9z" fill="" p-id="11508"></path><path d="M799.7 360c-85.4 0-154.6 69.2-154.6 154.6s69.2 154.6 154.6 154.6S954.3 600 954.3 514.6 885.1 360 799.7 360z m0 292c-75.9 0-137.4-61.5-137.4-137.4s61.5-137.4 137.4-137.4 137.4 61.5 137.4 137.4S875.6 652 799.7 652z" fill="#8098FF" p-id="11509"></path><path d="M799.7 670.6c-86 0-156-70-156-156s70-156 156-156 156 70 156 156-70 156-156 156z m0-309.2c-84.5 0-153.2 68.7-153.2 153.2s68.7 153.2 153.2 153.2S952.9 599 952.9 514.6s-68.8-153.2-153.2-153.2z m0 292c-76.6 0-138.9-62.3-138.9-138.9s62.3-138.9 138.9-138.9 138.8 62.4 138.8 139-62.3 138.8-138.8 138.8z m0-274.8c-75 0-136 61-136 136s61 136 136 136 136-61 136-136-61-136-136-136z" fill="" p-id="11510"></path><path d="M799.7 639.1c-68.7 0-124.5-55.9-124.5-124.5S731 390 799.7 390s124.5 55.9 124.5 124.5-55.8 124.6-124.5 124.6z m0-246.2c-67.1 0-121.7 54.6-121.7 121.7s54.6 121.7 121.7 121.7 121.7-54.6 121.7-121.7-54.6-121.7-121.7-121.7z" fill="" p-id="11511"></path></svg>