<?xml version="1.0" standalone="no"?><!DOCTYPE svg PUBLIC "-//W3C//DTD SVG 1.1//EN" "http://www.w3.org/Graphics/SVG/1.1/DTD/svg11.dtd"><svg t="1760345265952" class="icon" viewBox="0 0 1024 1024" version="1.1" xmlns="http://www.w3.org/2000/svg" p-id="1548" xmlns:xlink="http://www.w3.org/1999/xlink" width="200" height="200"><path d="M186.45 300.708c-56.31-17.193-113.224-60.58-136.305-107.725 73.093-20.92 144.395-42.158 216.208-61.44 25.989-6.984 53.145-9.79 79.882-13.67 40.161-5.827 75.284-3.451 99.471 38.584 16.671 28.99 42.363 52.787 66.274 81.623 30.976-37.14 58.808-72.018 88.555-105.175 7.455-8.305 20.849-15.278 31.816-15.76 83.62-3.563 262.154 40.868 339.896 84.02-29.768 52.173-79.81 76.124-130.58 100.833-37.315-91.607-116.143-66.929-186.9-73.39L515.378 1006.93l-5.007 0.194c-13.25-67.809-27.351-135.444-39.598-203.417-31.16-173.138-60.816-346.542-92.529-519.588-10.322-56.36-12.534-58.204-71.188-54.057-49.88 3.543-104.889 3.164-120.607 70.646z" fill="#d81e06" p-id="1549"></path><path d="M1020.62 115.046l-28.405 58.04c-320.686-125.419-639.293-127.14-959.949 0.564-9.175-18.657-17.807-36.198-28.877-58.747 339.518-129.884 675.339-131.543 1017.232 0.143z" fill="#d81e06" p-id="1550"></path></svg>